<?xml version="1.0" encoding="UTF-8" standalone="no"?>
<!DOCTYPE svg PUBLIC "-//W3C//DTD SVG 1.1//EN" "http://www.w3.org/Graphics/SVG/1.1/DTD/svg11.dtd">
<svg width="100%" height="100%" viewBox="0 0 24 24" version="1.1" xmlns="http://www.w3.org/2000/svg" xmlns:xlink="http://www.w3.org/1999/xlink" xml:space="preserve" xmlns:serif="http://www.serif.com/" style="fill-rule:evenodd;clip-rule:evenodd;stroke-linejoin:round;stroke-miterlimit:2;">
    <path d="M12,22C10.617,22 9.317,21.738 8.1,21.212C6.883,20.688 5.825,19.975 4.925,19.075C4.025,18.175 3.313,17.117 2.788,15.9C2.263,14.683 2,13.383 2,12C2,10.617 2.263,9.317 2.788,8.1C3.313,6.883 4.025,5.825 4.925,4.925C5.825,4.025 6.883,3.313 8.1,2.787C9.317,2.262 10.617,2 12,2C13.083,2 14.108,2.158 15.075,2.475C16.042,2.792 16.933,3.233 17.75,3.8L16.3,5.275C15.667,4.875 14.992,4.563 14.275,4.337C13.558,4.112 12.8,4 12,4C9.783,4 7.896,4.779 6.338,6.337C4.779,7.896 4,9.783 4,12C4,14.217 4.779,16.104 6.338,17.663C7.896,19.221 9.783,20 12,20C12.533,20 13.05,19.95 13.55,19.85C14.05,19.75 14.533,19.608 15,19.425L16.5,20.95C15.817,21.283 15.1,21.542 14.35,21.725C13.6,21.908 12.817,22 12,22ZM19,20L19,17L16,17L16,15L19,15L19,12L21,12L21,15L24,15L24,17L21,17L21,20L19,20ZM10.6,16.6L6.35,12.35L7.75,10.95L10.6,13.8L20.6,3.775L22,5.175L10.6,16.6Z" style="fill:white;fill-rule:nonzero;"/>
</svg>
