<?xml version="1.0" encoding="UTF-8" standalone="no"?>
<!DOCTYPE svg PUBLIC "-//W3C//DTD SVG 1.1//EN" "http://www.w3.org/Graphics/SVG/1.1/DTD/svg11.dtd">
<svg width="100%" height="100%" viewBox="0 0 24 24" version="1.1" xmlns="http://www.w3.org/2000/svg" xmlns:xlink="http://www.w3.org/1999/xlink" xml:space="preserve" xmlns:serif="http://www.serif.com/" style="fill-rule:evenodd;clip-rule:evenodd;stroke-linejoin:round;stroke-miterlimit:2;">
    <path d="M12,4C14.233,4 16.125,4.775 17.675,6.325C19.225,7.875 20,9.767 20,12C20,14.233 19.225,16.125 17.675,17.675C16.125,19.225 14.233,20 12,20C9.767,20 7.875,19.225 6.325,17.675C4.775,16.125 4,14.233 4,12C4,9.767 4.775,7.875 6.325,6.325C7.875,4.775 9.767,4 12,4ZM12,18C13.667,18 15.083,17.417 16.25,16.25C17.417,15.083 18,13.667 18,12C18,10.333 17.417,8.917 16.25,7.75C15.083,6.583 13.667,6 12,6C10.333,6 8.917,6.583 7.75,7.75C6.583,8.917 6,10.333 6,12C6,13.667 6.583,15.083 7.75,16.25C8.917,17.417 10.333,18 12,18ZM12,15.5C12.8,15.5 13.517,15.271 14.15,14.813C14.783,14.354 15.233,13.75 15.5,13L8.5,13C8.767,13.75 9.217,14.354 9.85,14.813C10.483,15.271 11.2,15.5 12,15.5ZM8.5,10C8.5,10.283 8.596,10.521 8.788,10.712C8.979,10.904 9.217,11 9.5,11C9.783,11 10.021,10.904 10.213,10.712C10.404,10.521 10.5,10.283 10.5,10C10.5,9.717 10.404,9.479 10.213,9.288C10.021,9.096 9.783,9 9.5,9C9.217,9 8.979,9.096 8.788,9.288C8.596,9.479 8.5,9.717 8.5,10ZM13.5,10C13.5,10.283 13.596,10.521 13.788,10.712C13.979,10.904 14.217,11 14.5,11C14.783,11 15.021,10.904 15.213,10.712C15.404,10.521 15.5,10.283 15.5,10C15.5,9.717 15.404,9.479 15.213,9.288C15.021,9.096 14.783,9 14.5,9C14.217,9 13.979,9.096 13.788,9.288C13.596,9.479 13.5,9.717 13.5,10ZM1,6L1,4C1,3.167 1.292,2.458 1.875,1.875C2.458,1.292 3.167,1 4,1L6,1L6,3L4,3C3.717,3 3.479,3.096 3.288,3.287C3.096,3.479 3,3.717 3,4L3,6L1,6ZM4,23C3.167,23 2.458,22.708 1.875,22.125C1.292,21.542 1,20.833 1,20L1,18L3,18L3,20C3,20.283 3.096,20.521 3.288,20.712C3.479,20.904 3.717,21 4,21L6,21L6,23L4,23ZM18,23L18,21L20,21C20.283,21 20.521,20.904 20.713,20.712C20.904,20.521 21,20.283 21,20L21,18L23,18L23,20C23,20.833 22.708,21.542 22.125,22.125C21.542,22.708 20.833,23 20,23L18,23ZM21,6L21,4C21,3.717 20.904,3.479 20.713,3.287C20.521,3.096 20.283,3 20,3L18,3L18,1L20,1C20.833,1 21.542,1.292 22.125,1.875C22.708,2.458 23,3.167 23,4L23,6L21,6Z" style="fill:white;fill-rule:nonzero;"/>
</svg>
