<?xml version="1.0" encoding="UTF-8" standalone="no"?>
<!DOCTYPE svg PUBLIC "-//W3C//DTD SVG 1.1//EN" "http://www.w3.org/Graphics/SVG/1.1/DTD/svg11.dtd">
<svg width="100%" height="100%" viewBox="0 0 24 24" version="1.1" xmlns="http://www.w3.org/2000/svg" xmlns:xlink="http://www.w3.org/1999/xlink" xml:space="preserve" xmlns:serif="http://www.serif.com/" style="fill-rule:evenodd;clip-rule:evenodd;stroke-linejoin:round;stroke-miterlimit:2;">
    <path d="M12,12C12.55,12 13.021,11.804 13.413,11.413C13.804,11.021 14,10.55 14,10C14,9.45 13.804,8.979 13.413,8.587C13.021,8.196 12.55,8 12,8C11.45,8 10.979,8.196 10.588,8.587C10.196,8.979 10,9.45 10,10C10,10.55 10.196,11.021 10.588,11.413C10.979,11.804 11.45,12 12,12ZM12,22C9.317,19.717 7.313,17.596 5.988,15.637C4.663,13.679 4,11.867 4,10.2C4,7.7 4.804,5.708 6.413,4.225C8.021,2.742 9.883,2 12,2C14.117,2 15.979,2.742 17.588,4.225C19.196,5.708 20,7.7 20,10.2C20,11.867 19.338,13.679 18.013,15.637C16.688,17.596 14.683,19.717 12,22Z" style="fill:white;fill-rule:nonzero;"/>
</svg>
