<?xml version="1.0" encoding="UTF-8" standalone="no"?>
<!DOCTYPE svg PUBLIC "-//W3C//DTD SVG 1.1//EN" "http://www.w3.org/Graphics/SVG/1.1/DTD/svg11.dtd">
<svg width="100%" height="100%" viewBox="0 0 24 24" version="1.1" xmlns="http://www.w3.org/2000/svg" xmlns:xlink="http://www.w3.org/1999/xlink" xml:space="preserve" xmlns:serif="http://www.serif.com/" style="fill-rule:evenodd;clip-rule:evenodd;stroke-linejoin:round;stroke-miterlimit:2;">
    <path d="M4,20C3.45,20 2.979,19.804 2.588,19.413C2.196,19.021 2,18.55 2,18L2,6C2,5.45 2.196,4.979 2.588,4.587C2.979,4.196 3.45,4 4,4L20,4C20.55,4 21.021,4.196 21.413,4.587C21.804,4.979 22,5.45 22,6L22,18C22,18.55 21.804,19.021 21.413,19.413C21.021,19.804 20.55,20 20,20L4,20ZM12,13L20,8L20,6L12,11L4,6L4,8L12,13Z" style="fill:white;fill-rule:nonzero;"/>
</svg>
