<?xml version="1.0" encoding="UTF-8" standalone="no"?>
<!DOCTYPE svg PUBLIC "-//W3C//DTD SVG 1.1//EN" "http://www.w3.org/Graphics/SVG/1.1/DTD/svg11.dtd">
<svg width="100%" height="100%" viewBox="0 0 24 24" version="1.1" xmlns="http://www.w3.org/2000/svg" xmlns:xlink="http://www.w3.org/1999/xlink" xml:space="preserve" xmlns:serif="http://www.serif.com/" style="fill-rule:evenodd;clip-rule:evenodd;stroke-linejoin:round;stroke-miterlimit:2;">
    <path d="M9.2,9.2L11.425,5.525L9.95,3.075C9.75,2.742 9.463,2.575 9.088,2.575C8.713,2.575 8.425,2.742 8.225,3.075L5.775,7.15L9.2,9.2ZM18.875,16L16.65,12.3L20.125,10.3L21.725,12.975C21.908,13.258 22.008,13.575 22.025,13.925C22.042,14.275 21.967,14.6 21.8,14.9C21.633,15.233 21.388,15.5 21.063,15.7C20.738,15.9 20.383,16 20,16L18.875,16ZM16,23L12,19L16,15L16,17L20.75,17L19.3,19.9C19.117,20.233 18.867,20.5 18.55,20.7C18.233,20.9 17.883,21 17.5,21L16,21L16,23ZM6.325,21C5.992,21 5.688,20.913 5.413,20.738C5.138,20.563 4.933,20.333 4.8,20.05C4.667,19.783 4.604,19.504 4.613,19.212C4.621,18.921 4.7,18.65 4.85,18.4L5.7,17L10,17L10,21L6.325,21ZM3.85,18.15L2.225,14.9C2.075,14.6 2.004,14.279 2.013,13.938C2.021,13.596 2.117,13.275 2.3,12.975L2.7,12.3L1,11.275L6.475,9.9L7.85,15.4L6.125,14.35L3.85,18.15ZM17.35,9.6L11.875,8.225L13.6,7.2L10.475,2L14,2C14.35,2 14.679,2.087 14.988,2.262C15.296,2.438 15.542,2.675 15.725,2.975L17.025,5.15L18.725,4.1L17.35,9.6Z" style="fill:white;fill-rule:nonzero;"/>
</svg>
