<?xml version="1.0" encoding="UTF-8" standalone="no"?>
<!DOCTYPE svg PUBLIC "-//W3C//DTD SVG 1.1//EN" "http://www.w3.org/Graphics/SVG/1.1/DTD/svg11.dtd">
<svg width="100%" height="100%" viewBox="0 0 24 24" version="1.1" xmlns="http://www.w3.org/2000/svg" xmlns:xlink="http://www.w3.org/1999/xlink" xml:space="preserve" xmlns:serif="http://www.serif.com/" style="fill-rule:evenodd;clip-rule:evenodd;stroke-linejoin:round;stroke-miterlimit:2;">
    <path d="M13,11L19.95,11C19.7,9.167 18.938,7.613 17.663,6.337C16.388,5.063 14.833,4.3 13,4.05L13,11ZM11,19.95L11,4.05C8.983,4.3 7.313,5.179 5.988,6.688C4.663,8.196 4,9.967 4,12C4,14.033 4.663,15.804 5.988,17.313C7.313,18.821 8.983,19.7 11,19.95ZM13,19.95C14.833,19.717 16.392,18.958 17.675,17.675C18.958,16.392 19.717,14.833 19.95,13L13,13L13,19.95ZM12,22C10.617,22 9.317,21.738 8.1,21.212C6.883,20.688 5.825,19.975 4.925,19.075C4.025,18.175 3.313,17.117 2.788,15.9C2.263,14.683 2,13.383 2,12C2,10.617 2.263,9.317 2.788,8.1C3.313,6.883 4.025,5.825 4.925,4.925C5.825,4.025 6.883,3.313 8.1,2.787C9.317,2.262 10.617,2 12,2C13.383,2 14.679,2.262 15.888,2.787C17.096,3.313 18.154,4.029 19.063,4.938C19.971,5.846 20.688,6.904 21.213,8.112C21.738,9.321 22,10.617 22,12C22,13.367 21.738,14.658 21.213,15.875C20.688,17.092 19.975,18.154 19.075,19.063C18.175,19.971 17.117,20.688 15.9,21.212C14.683,21.738 13.383,22 12,22Z" style="fill:white;fill-rule:nonzero;"/>
</svg>
