<?xml version="1.0" encoding="UTF-8" standalone="no"?>
<!DOCTYPE svg PUBLIC "-//W3C//DTD SVG 1.1//EN" "http://www.w3.org/Graphics/SVG/1.1/DTD/svg11.dtd">
<svg width="100%" height="100%" viewBox="0 0 24 24" version="1.1" xmlns="http://www.w3.org/2000/svg" xmlns:xlink="http://www.w3.org/1999/xlink" xml:space="preserve" xmlns:serif="http://www.serif.com/" style="fill-rule:evenodd;clip-rule:evenodd;stroke-linejoin:round;stroke-miterlimit:2;">
    <path d="M13,11L13,2.1C15.383,2.35 17.396,3.3 19.038,4.95C20.679,6.6 21.633,8.617 21.9,11L13,11ZM11.025,21.875C8.492,21.625 6.371,20.558 4.663,18.675C2.954,16.792 2.1,14.567 2.1,12C2.1,9.417 2.954,7.183 4.663,5.3C6.371,3.417 8.492,2.35 11.025,2.1L11.025,21.875ZM13,21.875L13,12.975L21.9,12.975C21.667,15.358 20.721,17.379 19.063,19.038C17.404,20.696 15.383,21.642 13,21.875Z" style="fill:white;fill-rule:nonzero;"/>
</svg>
