<?xml version="1.0" encoding="UTF-8" standalone="no"?>
<!DOCTYPE svg PUBLIC "-//W3C//DTD SVG 1.1//EN" "http://www.w3.org/Graphics/SVG/1.1/DTD/svg11.dtd">
<svg width="100%" height="100%" viewBox="0 0 24 24" version="1.1" xmlns="http://www.w3.org/2000/svg" xmlns:xlink="http://www.w3.org/1999/xlink" xml:space="preserve" xmlns:serif="http://www.serif.com/" style="fill-rule:evenodd;clip-rule:evenodd;stroke-linejoin:round;stroke-miterlimit:2;">
    <path d="M5,21C4.45,21 3.979,20.804 3.588,20.413C3.196,20.021 3,19.55 3,19L3,5C3,4.45 3.196,3.979 3.588,3.587C3.979,3.196 4.45,3 5,3L9.2,3C9.417,2.4 9.779,1.917 10.288,1.55C10.796,1.183 11.367,1 12,1C12.633,1 13.204,1.183 13.713,1.55C14.221,1.917 14.583,2.4 14.8,3L19,3C19.55,3 20.021,3.196 20.413,3.587C20.804,3.979 21,4.45 21,5L21,19C21,19.55 20.804,20.021 20.413,20.413C20.021,20.804 19.55,21 19,21L5,21ZM7,17L14,17L14,15L7,15L7,17ZM7,13L17,13L17,11L7,11L7,13ZM7,9L17,9L17,7L7,7L7,9ZM12,4.25C12.217,4.25 12.396,4.179 12.538,4.037C12.679,3.896 12.75,3.717 12.75,3.5C12.75,3.283 12.679,3.104 12.538,2.962C12.396,2.821 12.217,2.75 12,2.75C11.783,2.75 11.604,2.821 11.463,2.962C11.321,3.104 11.25,3.283 11.25,3.5C11.25,3.717 11.321,3.896 11.463,4.037C11.604,4.179 11.783,4.25 12,4.25Z" style="fill:white;fill-rule:nonzero;"/>
</svg>
