<?xml version="1.0" encoding="UTF-8" standalone="no"?>
<!DOCTYPE svg PUBLIC "-//W3C//DTD SVG 1.1//EN" "http://www.w3.org/Graphics/SVG/1.1/DTD/svg11.dtd">
<svg width="100%" height="100%" viewBox="0 0 24 24" version="1.1" xmlns="http://www.w3.org/2000/svg" xmlns:xlink="http://www.w3.org/1999/xlink" xml:space="preserve" xmlns:serif="http://www.serif.com/" style="fill-rule:evenodd;clip-rule:evenodd;stroke-linejoin:round;stroke-miterlimit:2;">
    <g transform="matrix(1,0,0,1,0,2)">
        <path d="M6,17C5.35,17 4.771,16.813 4.263,16.438C3.754,16.063 3.4,15.583 3.2,15L3,15C2.45,15 1.979,14.804 1.588,14.413C1.196,14.021 1,13.55 1,13L1,5C1,4.45 1.196,3.979 1.588,3.587C1.979,3.196 2.45,3 3,3L15.05,3C15.35,3 15.633,3.058 15.9,3.175C16.167,3.292 16.4,3.467 16.6,3.7L20.55,8.45C20.7,8.633 20.813,8.829 20.888,9.038C20.963,9.246 21,9.467 21,9.7L21,11.15C21.583,11.35 22.063,11.712 22.438,12.237C22.813,12.762 23,13.35 23,14C23,14.833 22.708,15.542 22.125,16.125C21.542,16.708 20.833,17 20,17C19.35,17 18.763,16.813 18.238,16.438C17.713,16.063 17.35,15.583 17.15,15L8.85,15C8.617,15.583 8.246,16.063 7.738,16.438C7.229,16.813 6.65,17 6,17ZM3,8L7,8L7,5L3,5L3,8ZM9,13L14,13L14,5L9,5L9,8L12,8L12,10L9,10L9,13ZM16,9L18.4,9L16,6.1L16,9ZM6,15C6.283,15 6.521,14.904 6.713,14.713C6.904,14.521 7,14.283 7,14C7,13.717 6.904,13.479 6.713,13.288C6.521,13.096 6.283,13 6,13C5.717,13 5.479,13.096 5.288,13.288C5.096,13.479 5,13.717 5,14C5,14.283 5.096,14.521 5.288,14.713C5.479,14.904 5.717,15 6,15ZM20,15C20.283,15 20.521,14.904 20.713,14.713C20.904,14.521 21,14.283 21,14C21,13.717 20.904,13.479 20.713,13.288C20.521,13.096 20.283,13 20,13C19.717,13 19.479,13.096 19.288,13.288C19.096,13.479 19,13.717 19,14C19,14.283 19.096,14.521 19.288,14.713C19.479,14.904 19.717,15 20,15ZM3,10L3,13L3.15,13C3.383,12.417 3.754,11.938 4.263,11.563C4.771,11.188 5.35,11 6,11C6.183,11 6.358,11.012 6.525,11.038C6.692,11.063 6.85,11.1 7,11.15L7,10L3,10ZM16,13L17.15,13C17.3,12.567 17.538,12.188 17.863,11.862C18.188,11.538 18.567,11.3 19,11.15L19,11L16,11L16,13ZM3,10L7,10L3,10ZM16,11L19,11L16,11Z" style="fill:white;fill-rule:nonzero;"/>
    </g>
</svg>
