<?xml version="1.0" encoding="UTF-8" standalone="no"?>
<!DOCTYPE svg PUBLIC "-//W3C//DTD SVG 1.1//EN" "http://www.w3.org/Graphics/SVG/1.1/DTD/svg11.dtd">
<svg width="100%" height="100%" viewBox="0 0 24 24" version="1.1" xmlns="http://www.w3.org/2000/svg" xmlns:xlink="http://www.w3.org/1999/xlink" xml:space="preserve" xmlns:serif="http://www.serif.com/" style="fill-rule:evenodd;clip-rule:evenodd;stroke-linejoin:round;stroke-miterlimit:2;">
    <g transform="matrix(1,0,0,1,2.95,-0.5)">
        <path d="M1.05,21L1.05,18.2C1.05,17.65 1.192,17.133 1.475,16.65C1.758,16.167 2.15,15.8 2.65,15.55C3.5,15.117 4.458,14.75 5.525,14.45C6.592,14.15 7.767,14 9.05,14C10.333,14 11.508,14.15 12.575,14.45C13.642,14.75 14.6,15.117 15.45,15.55C15.95,15.8 16.342,16.167 16.625,16.65C16.908,17.133 17.05,17.65 17.05,18.2L17.05,21L1.05,21ZM3.05,19L15.05,19L15.05,18.2C15.05,18.017 15.004,17.85 14.913,17.7C14.821,17.55 14.7,17.433 14.55,17.35C13.95,17.05 13.179,16.75 12.238,16.45C11.296,16.15 10.233,16 9.05,16C7.867,16 6.804,16.15 5.863,16.45C4.921,16.75 4.15,17.05 3.55,17.35C3.4,17.433 3.279,17.55 3.188,17.7C3.096,17.85 3.05,18.017 3.05,18.2L3.05,19ZM9.05,13C7.95,13 7.008,12.608 6.225,11.825C5.442,11.042 5.05,10.1 5.05,9L4.8,9C4.65,9 4.529,8.954 4.438,8.862C4.346,8.771 4.3,8.65 4.3,8.5C4.3,8.35 4.346,8.229 4.438,8.137C4.529,8.046 4.65,8 4.8,8L5.05,8C5.05,7.25 5.233,6.575 5.6,5.975C5.967,5.375 6.45,4.9 7.05,4.55L7.05,5.5C7.05,5.65 7.096,5.771 7.188,5.863C7.279,5.954 7.4,6 7.55,6C7.7,6 7.821,5.954 7.913,5.863C8.004,5.771 8.05,5.65 8.05,5.5L8.05,4.15C8.2,4.1 8.358,4.063 8.525,4.037C8.692,4.012 8.867,4 9.05,4C9.233,4 9.408,4.012 9.575,4.037C9.742,4.063 9.9,4.1 10.05,4.15L10.05,5.5C10.05,5.65 10.096,5.771 10.188,5.863C10.279,5.954 10.4,6 10.55,6C10.7,6 10.821,5.954 10.913,5.863C11.004,5.771 11.05,5.65 11.05,5.5L11.05,4.55C11.65,4.9 12.133,5.375 12.5,5.975C12.867,6.575 13.05,7.25 13.05,8L13.3,8C13.45,8 13.571,8.046 13.663,8.137C13.754,8.229 13.8,8.35 13.8,8.5C13.8,8.65 13.754,8.771 13.663,8.862C13.571,8.954 13.45,9 13.3,9L13.05,9C13.05,10.1 12.658,11.042 11.875,11.825C11.092,12.608 10.15,13 9.05,13ZM9.05,11C9.6,11 10.071,10.804 10.463,10.413C10.854,10.021 11.05,9.55 11.05,9L7.05,9C7.05,9.55 7.246,10.021 7.638,10.413C8.029,10.804 8.5,11 9.05,11Z" style="fill:white;fill-rule:nonzero;"/>
    </g>
</svg>
