<?xml version="1.0" encoding="UTF-8" standalone="no"?>
<!DOCTYPE svg PUBLIC "-//W3C//DTD SVG 1.1//EN" "http://www.w3.org/Graphics/SVG/1.1/DTD/svg11.dtd">
<svg width="100%" height="100%" viewBox="0 0 24 24" version="1.1" xmlns="http://www.w3.org/2000/svg" xmlns:xlink="http://www.w3.org/1999/xlink" xml:space="preserve" xmlns:serif="http://www.serif.com/" style="fill-rule:evenodd;clip-rule:evenodd;stroke-linejoin:round;stroke-miterlimit:2;">
    <path d="M15,21L15,14.9C15,14.417 15.158,13.992 15.475,13.625C15.792,13.258 16.192,13.033 16.675,12.95C17.642,12.783 18.438,12.329 19.063,11.587C19.688,10.846 20,9.983 20,9C20,7.9 19.608,6.958 18.825,6.175C18.042,5.392 17.1,5 16,5C15.017,5 14.154,5.313 13.413,5.938C12.671,6.563 12.217,7.358 12.05,8.325C11.967,8.808 11.742,9.208 11.375,9.525C11.008,9.842 10.583,10 10.1,10L5.825,10L7.425,11.6L6,13L2,9L6,5L7.4,6.4L5.825,8L10.075,8C10.308,6.533 10.988,5.333 12.113,4.4C13.238,3.467 14.533,3 16,3C17.667,3 19.083,3.583 20.25,4.75C21.417,5.917 22,7.333 22,9C22,10.467 21.533,11.762 20.6,12.887C19.667,14.012 18.467,14.692 17,14.925L17,21L15,21Z" style="fill:white;fill-rule:nonzero;"/>
</svg>
