<?xml version="1.0" encoding="UTF-8" standalone="no"?>
<!DOCTYPE svg PUBLIC "-//W3C//DTD SVG 1.1//EN" "http://www.w3.org/Graphics/SVG/1.1/DTD/svg11.dtd">
<svg width="100%" height="100%" viewBox="0 0 24 24" version="1.1" xmlns="http://www.w3.org/2000/svg" xmlns:xlink="http://www.w3.org/1999/xlink" xml:space="preserve" xmlns:serif="http://www.serif.com/" style="fill-rule:evenodd;clip-rule:evenodd;stroke-linejoin:round;stroke-miterlimit:2;">
    <path d="M12,18C12.433,18 12.792,17.858 13.075,17.575C13.358,17.292 13.5,16.933 13.5,16.5C13.5,16.067 13.358,15.708 13.075,15.425C12.792,15.142 12.433,15 12,15C11.567,15 11.208,15.142 10.925,15.425C10.642,15.708 10.5,16.067 10.5,16.5C10.5,16.933 10.642,17.292 10.925,17.575C11.208,17.858 11.567,18 12,18ZM12,13.5C12.433,13.5 12.792,13.358 13.075,13.075C13.358,12.792 13.5,12.433 13.5,12C13.5,11.567 13.358,11.208 13.075,10.925C12.792,10.642 12.433,10.5 12,10.5C11.567,10.5 11.208,10.642 10.925,10.925C10.642,11.208 10.5,11.567 10.5,12C10.5,12.433 10.642,12.792 10.925,13.075C11.208,13.358 11.567,13.5 12,13.5ZM12,9C12.433,9 12.792,8.858 13.075,8.575C13.358,8.292 13.5,7.933 13.5,7.5C13.5,7.067 13.358,6.708 13.075,6.425C12.792,6.142 12.433,6 12,6C11.567,6 11.208,6.142 10.925,6.425C10.642,6.708 10.5,7.067 10.5,7.5C10.5,7.933 10.642,8.292 10.925,8.575C11.208,8.858 11.567,9 12,9ZM7,15L7,13.85C6.15,13.617 5.438,13.15 4.863,12.45C4.288,11.75 4,10.933 4,10L7,10L7,8.85C6.15,8.617 5.438,8.15 4.863,7.45C4.288,6.75 4,5.933 4,5L7,5C7,4.45 7.196,3.979 7.588,3.587C7.979,3.196 8.45,3 9,3L15,3C15.55,3 16.021,3.196 16.413,3.587C16.804,3.979 17,4.45 17,5L20,5C20,5.933 19.713,6.75 19.138,7.45C18.563,8.15 17.85,8.617 17,8.85L17,10L20,10C20,10.933 19.713,11.75 19.138,12.45C18.563,13.15 17.85,13.617 17,13.85L17,15L20,15C20,15.933 19.713,16.75 19.138,17.45C18.563,18.15 17.85,18.617 17,18.85L17,19C17,19.55 16.804,20.021 16.413,20.413C16.021,20.804 15.55,21 15,21L9,21C8.45,21 7.979,20.804 7.588,20.413C7.196,20.021 7,19.55 7,19L7,18.85C6.15,18.617 5.438,18.15 4.863,17.45C4.288,16.75 4,15.933 4,15L7,15ZM9,19L15,19L15,5L9,5L9,19ZM9,19L9,5L9,19Z" style="fill:white;fill-rule:nonzero;"/>
</svg>
