<?xml version="1.0" encoding="UTF-8" standalone="no"?>
<!DOCTYPE svg PUBLIC "-//W3C//DTD SVG 1.1//EN" "http://www.w3.org/Graphics/SVG/1.1/DTD/svg11.dtd">
<svg width="100%" height="100%" viewBox="0 0 24 24" version="1.1" xmlns="http://www.w3.org/2000/svg" xmlns:xlink="http://www.w3.org/1999/xlink" xml:space="preserve" xmlns:serif="http://www.serif.com/" style="fill-rule:evenodd;clip-rule:evenodd;stroke-linejoin:round;stroke-miterlimit:2;">
    <path d="M16,21L16,9C16,7.9 15.608,6.958 14.825,6.175C14.042,5.392 13.1,5 12,5C10.9,5 9.958,5.392 9.175,6.175C8.392,6.958 8,7.9 8,9L8,13.2L9.6,11.6L11,13L7,17L3,13L4.4,11.6L6,13.2L6,9C6,7.333 6.583,5.917 7.75,4.75C8.917,3.583 10.333,3 12,3C13.667,3 15.083,3.583 16.25,4.75C17.417,5.917 18,7.333 18,9L18,21L16,21Z" style="fill:white;fill-rule:nonzero;"/>
</svg>
